# xmcd CD database file
#
# Track frame offsets:
#	150
#	14972
#	38877
#	60390
#	86750
#	126940
#	148440
#	179827
#
# Disc length: 2622 seconds
#
# Revision: 0
# Processed by: cddbd v1.5PL3 Copyright (c) Steve Scherf et al.
# Submitted via: CDex 1.50beta10
#
DISCID=7e0a3c08
DTITLE=Caledonia Blues Band - Alameda Sessions
DYEAR=1993
DGENRE=Blues
TTITLE0=Burning Heart
TTITLE1=Why I Sing The Blues
TTITLE2=Fish Outta Water
TTITLE3=Tn pAn Alley
TTITLE4=If I Had
TTITLE5=Somebody's Home
TTITLE6=Wonder
TTITLE7=Millionaire Blues
EXTD=YEAR: 1993
EXTT0=
EXTT1=
EXTT2=
EXTT3=
EXTT4=
EXTT5=
EXTT6=
EXTT7=
PLAYORDER=
